<svg width="272" height="24" viewBox="0 0 272 24" fill="none" xmlns="http://www.w3.org/2000/svg">
<path d="M0.0227273 23.5V0.227272H9.20455C10.9621 0.227272 12.4621 0.541666 13.7045 1.17045C14.9545 1.79167 15.9053 2.67424 16.5568 3.81818C17.2159 4.95454 17.5455 6.29167 17.5455 7.82955C17.5455 9.375 17.2121 10.7045 16.5455 11.8182C15.8788 12.9242 14.9129 13.7727 13.6477 14.3636C12.3902 14.9545 10.8674 15.25 9.07955 15.25H2.93182V11.2955H8.28409C9.22348 11.2955 10.0038 11.1667 10.625 10.9091C11.2462 10.6515 11.7083 10.2652 12.0114 9.75C12.322 9.23485 12.4773 8.5947 12.4773 7.82955C12.4773 7.05682 12.322 6.4053 12.0114 5.875C11.7083 5.3447 11.2424 4.94318 10.6136 4.67045C9.99242 4.39015 9.20833 4.25 8.26136 4.25H4.94318V23.5H0.0227273ZM12.5909 12.9091L18.375 23.5H12.9432L7.28409 12.9091H12.5909ZM28.6051 23.8409C26.8097 23.8409 25.2642 23.4773 23.9688 22.75C22.6809 22.0152 21.6884 20.9773 20.9915 19.6364C20.2945 18.2879 19.946 16.6932 19.946 14.8523C19.946 13.0568 20.2945 11.4811 20.9915 10.125C21.6884 8.76894 22.6695 7.71212 23.9347 6.95454C25.2074 6.19697 26.6998 5.81818 28.4119 5.81818C29.5634 5.81818 30.6354 6.00379 31.6278 6.375C32.6278 6.73864 33.4991 7.28788 34.2415 8.02273C34.9915 8.75758 35.5748 9.68182 35.9915 10.7955C36.4081 11.9015 36.6165 13.197 36.6165 14.6818V16.0114H21.8778V13.0114H32.0597C32.0597 12.3144 31.9081 11.697 31.6051 11.1591C31.3021 10.6212 30.8816 10.2008 30.3438 9.89773C29.8134 9.58712 29.196 9.43182 28.4915 9.43182C27.7566 9.43182 27.1051 9.60227 26.5369 9.94318C25.9763 10.2765 25.5369 10.7273 25.2188 11.2955C24.9006 11.8561 24.7377 12.4811 24.7301 13.1705V16.0227C24.7301 16.8864 24.8892 17.6326 25.2074 18.2614C25.5331 18.8902 25.9915 19.375 26.5824 19.7159C27.1733 20.0568 27.8741 20.2273 28.6847 20.2273C29.2225 20.2273 29.715 20.1515 30.1619 20C30.6089 19.8485 30.9915 19.6212 31.3097 19.3182C31.6278 19.0152 31.8703 18.6439 32.0369 18.2045L36.5142 18.5C36.2869 19.5758 35.821 20.5152 35.1165 21.3182C34.4195 22.1136 33.518 22.7348 32.4119 23.1818C31.3134 23.6212 30.0445 23.8409 28.6051 23.8409ZM187.054 0.227272H193.122L199.531 15.8636H199.804L206.213 0.227272H212.281V23.5H207.509V8.35227H207.315L201.293 23.3864H198.043L192.02 8.29545H191.827V23.5H187.054V0.227272ZM224.199 23.8409C222.403 23.8409 220.858 23.4773 219.562 22.75C218.275 22.0152 217.282 20.9773 216.585 19.6364C215.888 18.2879 215.54 16.6932 215.54 14.8523C215.54 13.0568 215.888 11.4811 216.585 10.125C217.282 8.76894 218.263 7.71212 219.528 6.95454C220.801 6.19697 222.294 5.81818 224.006 5.81818C225.157 5.81818 226.229 6.00379 227.222 6.375C228.222 6.73864 229.093 7.28788 229.835 8.02273C230.585 8.75758 231.169 9.68182 231.585 10.7955C232.002 11.9015 232.21 13.197 232.21 14.6818V16.0114H217.472V13.0114H227.653C227.653 12.3144 227.502 11.697 227.199 11.1591C226.896 10.6212 226.475 10.2008 225.938 9.89773C225.407 9.58712 224.79 9.43182 224.085 9.43182C223.35 9.43182 222.699 9.60227 222.131 9.94318C221.57 10.2765 221.131 10.7273 220.812 11.2955C220.494 11.8561 220.331 12.4811 220.324 13.1705V16.0227C220.324 16.8864 220.483 17.6326 220.801 18.2614C221.127 18.8902 221.585 19.375 222.176 19.7159C222.767 20.0568 223.468 20.2273 224.278 20.2273C224.816 20.2273 225.309 20.1515 225.756 20C226.203 19.8485 226.585 19.6212 226.903 19.3182C227.222 19.0152 227.464 18.6439 227.631 18.2045L232.108 18.5C231.881 19.5758 231.415 20.5152 230.71 21.3182C230.013 22.1136 229.112 22.7348 228.006 23.1818C226.907 23.6212 225.638 23.8409 224.199 23.8409Z" fill="#FF0A0A"/>
<path d="M54.2983 11.0227L49.8665 11.2955C49.7907 10.9167 49.6278 10.5758 49.3778 10.2727C49.1278 9.96212 48.7983 9.71591 48.3892 9.53409C47.9877 9.3447 47.5066 9.25 46.946 9.25C46.196 9.25 45.5634 9.40909 45.0483 9.72727C44.5331 10.0379 44.2756 10.4545 44.2756 10.9773C44.2756 11.3939 44.4422 11.7462 44.7756 12.0341C45.1089 12.322 45.6809 12.553 46.4915 12.7273L49.6506 13.3636C51.3475 13.7121 52.6127 14.2727 53.446 15.0455C54.2794 15.8182 54.696 16.8333 54.696 18.0909C54.696 19.2348 54.3589 20.2386 53.6847 21.1023C53.018 21.9659 52.1013 22.6402 50.9347 23.125C49.7756 23.6023 48.4384 23.8409 46.9233 23.8409C44.6127 23.8409 42.7718 23.3598 41.4006 22.3977C40.0369 21.428 39.2377 20.1098 39.0028 18.4432L43.7642 18.1932C43.9081 18.8977 44.2566 19.4356 44.8097 19.8068C45.3627 20.1705 46.071 20.3523 46.9347 20.3523C47.7831 20.3523 48.465 20.1894 48.9801 19.8636C49.5028 19.5303 49.768 19.1023 49.7756 18.5795C49.768 18.1402 49.5824 17.7803 49.2188 17.5C48.8551 17.2121 48.2945 16.9924 47.5369 16.8409L44.5142 16.2386C42.8097 15.8977 41.5407 15.3068 40.7074 14.4659C39.8816 13.625 39.4688 12.553 39.4688 11.25C39.4688 10.1288 39.7718 9.16288 40.3778 8.35227C40.9915 7.54167 41.8513 6.91667 42.9574 6.47727C44.071 6.03788 45.3741 5.81818 46.8665 5.81818C49.071 5.81818 50.8059 6.28409 52.071 7.21591C53.3438 8.14773 54.0862 9.41667 54.2983 11.0227ZM67.0284 6.04545V9.68182H56.517V6.04545H67.0284ZM58.9034 1.86364H63.7443V18.1364C63.7443 18.5833 63.8125 18.9318 63.9489 19.1818C64.0852 19.4242 64.2746 19.5947 64.517 19.6932C64.767 19.7917 65.0549 19.8409 65.3807 19.8409C65.608 19.8409 65.8352 19.822 66.0625 19.7841C66.2898 19.7386 66.464 19.7045 66.5852 19.6818L67.3466 23.2841C67.1042 23.3598 66.7633 23.447 66.3239 23.5455C65.8845 23.6515 65.3504 23.7159 64.7216 23.7386C63.5549 23.7841 62.5322 23.6288 61.6534 23.2727C60.7822 22.9167 60.1042 22.3636 59.6193 21.6136C59.1345 20.8636 58.8958 19.9167 58.9034 18.7727V1.86364ZM75.1591 23.8295C74.0455 23.8295 73.053 23.6364 72.1818 23.25C71.3106 22.8561 70.6212 22.2765 70.1136 21.5114C69.6136 20.7386 69.3636 19.7765 69.3636 18.625C69.3636 17.6553 69.5417 16.8409 69.8977 16.1818C70.2538 15.5227 70.7386 14.9924 71.3523 14.5909C71.9659 14.1894 72.6629 13.8864 73.4432 13.6818C74.2311 13.4773 75.0568 13.3333 75.9205 13.25C76.9356 13.1439 77.7538 13.0455 78.375 12.9545C78.9962 12.8561 79.447 12.7121 79.7273 12.5227C80.0076 12.3333 80.1477 12.053 80.1477 11.6818V11.6136C80.1477 10.8939 79.9205 10.3371 79.4659 9.94318C79.0189 9.54924 78.3826 9.35227 77.5568 9.35227C76.6856 9.35227 75.9924 9.54545 75.4773 9.93182C74.9621 10.3106 74.6212 10.7879 74.4545 11.3636L69.9773 11C70.2045 9.93939 70.6515 9.02273 71.3182 8.25C71.9848 7.4697 72.8447 6.87121 73.8977 6.45454C74.9583 6.0303 76.1856 5.81818 77.5795 5.81818C78.5492 5.81818 79.4773 5.93182 80.3636 6.15909C81.2576 6.38636 82.0492 6.73864 82.7386 7.21591C83.4356 7.69318 83.9848 8.30682 84.3864 9.05682C84.7879 9.79924 84.9886 10.6894 84.9886 11.7273V23.5H80.3977V21.0795H80.2614C79.9811 21.625 79.6061 22.1061 79.1364 22.5227C78.6667 22.9318 78.1023 23.2538 77.4432 23.4886C76.7841 23.7159 76.0227 23.8295 75.1591 23.8295ZM76.5455 20.4886C77.2576 20.4886 77.8864 20.3485 78.4318 20.0682C78.9773 19.7803 79.4053 19.3939 79.7159 18.9091C80.0265 18.4242 80.1818 17.875 80.1818 17.2614V15.4091C80.0303 15.5076 79.822 15.5985 79.5568 15.6818C79.2992 15.7576 79.0076 15.8295 78.6818 15.8977C78.3561 15.9583 78.0303 16.0152 77.7045 16.0682C77.3788 16.1136 77.0833 16.1553 76.8182 16.1932C76.25 16.2765 75.7538 16.4091 75.3295 16.5909C74.9053 16.7727 74.5758 17.0189 74.3409 17.3295C74.1061 17.6326 73.9886 18.0114 73.9886 18.4659C73.9886 19.125 74.2273 19.6288 74.7045 19.9773C75.1894 20.3182 75.803 20.4886 76.5455 20.4886ZM99.9375 16.0682V6.04545H104.778V23.5H100.131V20.3295H99.9489C99.5549 21.3523 98.8996 22.1742 97.983 22.7955C97.0739 23.4167 95.964 23.7273 94.6534 23.7273C93.4867 23.7273 92.4602 23.4621 91.5739 22.9318C90.6875 22.4015 89.9943 21.6477 89.4943 20.6705C89.0019 19.6932 88.7519 18.5227 88.7443 17.1591V6.04545H93.5852V16.2955C93.5928 17.3258 93.8693 18.1402 94.4148 18.7386C94.9602 19.3371 95.6913 19.6364 96.608 19.6364C97.1913 19.6364 97.7367 19.5038 98.2443 19.2386C98.7519 18.9659 99.161 18.5644 99.4716 18.0341C99.7898 17.5038 99.9451 16.8485 99.9375 16.0682ZM108.651 23.5V6.04545H113.344V9.09091H113.526C113.844 8.00758 114.378 7.18939 115.128 6.63636C115.878 6.07576 116.741 5.79545 117.719 5.79545C117.961 5.79545 118.223 5.81061 118.503 5.84091C118.783 5.87121 119.029 5.91288 119.241 5.96591V10.2614C119.014 10.1932 118.7 10.1326 118.298 10.0795C117.897 10.0265 117.529 10 117.196 10C116.484 10 115.848 10.1553 115.287 10.4659C114.734 10.7689 114.295 11.1932 113.969 11.7386C113.651 12.2841 113.491 12.9129 113.491 13.625V23.5H108.651ZM126.222 23.8295C125.108 23.8295 124.116 23.6364 123.244 23.25C122.373 22.8561 121.684 22.2765 121.176 21.5114C120.676 20.7386 120.426 19.7765 120.426 18.625C120.426 17.6553 120.604 16.8409 120.96 16.1818C121.316 15.5227 121.801 14.9924 122.415 14.5909C123.028 14.1894 123.725 13.8864 124.506 13.6818C125.294 13.4773 126.119 13.3333 126.983 13.25C127.998 13.1439 128.816 13.0455 129.438 12.9545C130.059 12.8561 130.509 12.7121 130.79 12.5227C131.07 12.3333 131.21 12.053 131.21 11.6818V11.6136C131.21 10.8939 130.983 10.3371 130.528 9.94318C130.081 9.54924 129.445 9.35227 128.619 9.35227C127.748 9.35227 127.055 9.54545 126.54 9.93182C126.025 10.3106 125.684 10.7879 125.517 11.3636L121.04 11C121.267 9.93939 121.714 9.02273 122.381 8.25C123.047 7.4697 123.907 6.87121 124.96 6.45454C126.021 6.0303 127.248 5.81818 128.642 5.81818C129.612 5.81818 130.54 5.93182 131.426 6.15909C132.32 6.38636 133.112 6.73864 133.801 7.21591C134.498 7.69318 135.047 8.30682 135.449 9.05682C135.85 9.79924 136.051 10.6894 136.051 11.7273V23.5H131.46V21.0795H131.324C131.044 21.625 130.669 22.1061 130.199 22.5227C129.729 22.9318 129.165 23.2538 128.506 23.4886C127.847 23.7159 127.085 23.8295 126.222 23.8295ZM127.608 20.4886C128.32 20.4886 128.949 20.3485 129.494 20.0682C130.04 19.7803 130.468 19.3939 130.778 18.9091C131.089 18.4242 131.244 17.875 131.244 17.2614V15.4091C131.093 15.5076 130.884 15.5985 130.619 15.6818C130.362 15.7576 130.07 15.8295 129.744 15.8977C129.419 15.9583 129.093 16.0152 128.767 16.0682C128.441 16.1136 128.146 16.1553 127.881 16.1932C127.313 16.2765 126.816 16.4091 126.392 16.5909C125.968 16.7727 125.638 17.0189 125.403 17.3295C125.169 17.6326 125.051 18.0114 125.051 18.4659C125.051 19.125 125.29 19.6288 125.767 19.9773C126.252 20.3182 126.866 20.4886 127.608 20.4886ZM240.21 13.4091V23.5H235.369V6.04545H239.983V9.125H240.188C240.574 8.10985 241.222 7.30682 242.131 6.71591C243.04 6.11742 244.142 5.81818 245.438 5.81818C246.65 5.81818 247.706 6.08333 248.608 6.61364C249.509 7.14394 250.21 7.90151 250.71 8.88636C251.21 9.86364 251.46 11.0303 251.46 12.3864V23.5H246.619V13.25C246.627 12.1818 246.354 11.3485 245.801 10.75C245.248 10.1439 244.487 9.84091 243.517 9.84091C242.866 9.84091 242.29 9.98106 241.79 10.2614C241.297 10.5417 240.911 10.9508 240.631 11.4886C240.358 12.0189 240.218 12.6591 240.21 13.4091ZM266.469 16.0682V6.04545H271.31V23.5H266.662V20.3295H266.48C266.086 21.3523 265.431 22.1742 264.514 22.7955C263.605 23.4167 262.495 23.7273 261.185 23.7273C260.018 23.7273 258.991 23.4621 258.105 22.9318C257.219 22.4015 256.526 21.6477 256.026 20.6705C255.533 19.6932 255.283 18.5227 255.276 17.1591V6.04545H260.116V16.2955C260.124 17.3258 260.401 18.1402 260.946 18.7386C261.491 19.3371 262.223 19.6364 263.139 19.6364C263.723 19.6364 264.268 19.5038 264.776 19.2386C265.283 18.9659 265.692 18.5644 266.003 18.0341C266.321 17.5038 266.476 16.8485 266.469 16.0682Z" fill="white"/>
<path d="M144.648 13.4091V23.5H139.807V6.04545H144.42V9.125H144.625C145.011 8.10985 145.659 7.30682 146.568 6.71591C147.477 6.11742 148.58 5.81818 149.875 5.81818C151.087 5.81818 152.144 6.08333 153.045 6.61364C153.947 7.14394 154.648 7.90151 155.148 8.88636C155.648 9.86364 155.898 11.0303 155.898 12.3864V23.5H151.057V13.25C151.064 12.1818 150.792 11.3485 150.239 10.75C149.686 10.1439 148.924 9.84091 147.955 9.84091C147.303 9.84091 146.727 9.98106 146.227 10.2614C145.735 10.5417 145.348 10.9508 145.068 11.4886C144.795 12.0189 144.655 12.6591 144.648 13.4091ZM168.997 6.04545V9.68182H158.486V6.04545H168.997ZM160.872 1.86364H165.713V18.1364C165.713 18.5833 165.781 18.9318 165.918 19.1818C166.054 19.4242 166.243 19.5947 166.486 19.6932C166.736 19.7917 167.024 19.8409 167.349 19.8409C167.577 19.8409 167.804 19.822 168.031 19.7841C168.259 19.7386 168.433 19.7045 168.554 19.6818L169.315 23.2841C169.073 23.3598 168.732 23.447 168.293 23.5455C167.853 23.6515 167.319 23.7159 166.69 23.7386C165.524 23.7841 164.501 23.6288 163.622 23.2727C162.751 22.9167 162.073 22.3636 161.588 21.6136C161.103 20.8636 160.865 19.9167 160.872 18.7727V1.86364Z" fill="#F11515"/>
</svg>
